<?xml version="1.0" encoding="utf-8"?>
<!-- Generator: Adobe Illustrator 24.0.1, SVG Export Plug-In . SVG Version: 6.00 Build 0)  -->
<svg version="1.1" id="Layer_1" xmlns="http://www.w3.org/2000/svg" xmlns:xlink="http://www.w3.org/1999/xlink" x="0px" y="0px"
	 width="170.7px" height="98.3px" viewBox="0 0 170.7 98.3" style="enable-background:new 0 0 170.7 98.3;" xml:space="preserve">
<style type="text/css">
	.st0{fill:#84C225;}
	.st1{fill:#FAFAFA;}
</style>
<g>
	<path class="st0" d="M5.1,54.1L7,51.9c2.7,3,6.4,5.9,12.7,5.9c6.2,0,10.8-4,10.8-10.2c0-6.3-4.6-10.7-16-10.7v-2.8
		c10.6,0,14.3-4.5,14.3-10c0-5.2-3.7-8.6-9.3-8.6c-4.2,0-7.9,2.2-10.5,5l-2-2c3.2-3.1,7.1-5.6,12.5-5.6C26.6,12.9,32,17,32,24
		c0,6-3.7,9.6-8.8,11.4v0.3c5.7,1.2,10.5,5.4,10.5,12c0,8-6.1,13-14.1,13C12.3,60.6,8,57.3,5.1,54.1z"/>
	<path class="st0" d="M43.8,57.4c0-2.1,1.5-3.3,3.1-3.3s3.1,1.2,3.1,3.3c0,2-1.5,3.2-3.1,3.2S43.8,59.4,43.8,57.4z M45.2,16.6v-5.1
		h3.3v5.1L48,46.9h-2.4L45.2,16.6z"/>
	<path class="st0" d="M85.1,38c0-7.3-1.9-10.8-6.6-10.8c-4.6,0-7.7,2.1-12.6,9.4v23.2h-3.2V34c0-2.8,0-5.3-0.3-8.8h3l0.3,8H66
		c3.9-6.3,7.9-8.8,13.1-8.8c6.2,0,9,4.3,9,13.3v35.1h-3.2C85.1,61.1,85.1,49.2,85.1,38z"/>
	<path class="st0" d="M98,43.4c0-12.1,7.1-19.1,15.1-19.1c4.5,0,9.5,2.8,11.3,10.4h0.2l1.7-9.5h3.2c-1.9,9.7-4.2,21.8-4.2,28.8
		c0,2.3,1.6,3.8,3.5,3.8c0.8,0,1.8-0.3,2.5-0.6l0.6,2.6c-0.8,0.3-1.9,0.8-3.5,0.8c-3.6,0-6.3-2.6-5.5-7.8h-0.2
		c-2.8,5.2-6.8,7.8-11.4,7.8C103.3,60.6,98,54.8,98,43.4z M122.7,45.1l0.6-6.8c-2.2-9.6-6.7-11.1-10.1-11.1
		c-6.1,0-11.8,5.8-11.8,16.2c0,8.8,3.7,14.4,10.1,14.4C116.8,57.8,122.1,52,122.7,45.1z"/>
	<path class="st0" d="M148.7,47.9h-12v-2.4h12v-5.2h-12v-2.4h10.9l-12.4-24.2h3.5l6.8,13.9c1.5,3.2,3.1,6.3,4.7,9.9h0.3
		c1.8-3.6,3.2-6.7,4.9-9.9l6.8-13.9h3.3L153,37.9h11v2.4h-12.1v5.2H164v2.4h-12.1v11.9h-3.2V47.9z"/>
</g>
<g>
	<path class="st1" d="M5.1,91.3L5.1,91.3l-0.2,1H4.2V77.2h0.9v4.4v2c1-0.9,2.2-1.6,3.5-1.6c2.7,0,4,2,4,5.1c0,3.4-2.1,5.4-4.4,5.4
		C7.1,92.5,6,92,5.1,91.3z M11.6,87.1c0-2.5-0.9-4.3-3.2-4.3c-1,0-2.1,0.6-3.3,1.7v6c1.1,0.9,2.2,1.3,3,1.3
		C10.1,91.7,11.6,89.8,11.6,87.1z"/>
	<path class="st1" d="M15.2,78.9c0-0.5,0.4-0.8,0.8-0.8c0.5,0,0.8,0.3,0.8,0.8s-0.4,0.8-0.8,0.8C15.6,79.8,15.2,79.4,15.2,78.9z
		 M15.5,82.2h0.9v10.1h-0.9V82.2z"/>
	<path class="st1" d="M20.3,82.2h0.8l0.1,1.6l0,0c1-1,2.1-1.8,3.5-1.8c2.1,0,3,1.3,3,3.9v6.5h-0.9v-6.3c0-2.1-0.7-3.2-2.3-3.2
		c-1.2,0-2.1,0.6-3.3,1.9v7.6h-0.9C20.3,92.4,20.3,82.2,20.3,82.2z"/>
	<path class="st1" d="M30.8,89.8c0-2.2,2-3.3,6.5-3.8c0-1.5-0.4-3.2-2.4-3.2c-1.4,0-2.5,0.7-3.2,1.2l-0.4-0.7
		c0.7-0.5,2.1-1.3,3.8-1.3c2.4,0,3.2,1.7,3.2,3.9v6.4h-0.8L37.3,91l0,0c-1,0.8-2.3,1.6-3.6,1.6C32.1,92.5,30.8,91.7,30.8,89.8z
		 M37.3,90.1v-3.4c-4.1,0.5-5.6,1.4-5.6,3c0,1.4,1,2,2.1,2C35,91.7,36.1,91.2,37.3,90.1z"/>
	<path class="st1" d="M40.4,96.7l0.2-0.8c0.2,0.1,0.5,0.2,0.8,0.2c1.2,0,2.1-1.1,2.6-2.7l0.3-0.9l-4.1-10.3h1l2.4,6.3
		c0.3,0.9,0.7,1.9,1.1,2.8h0.1c0.3-0.9,0.6-2,0.9-2.8l2.1-6.3h0.9l-4,11.4c-0.6,1.7-1.6,3.3-3.4,3.3C41,96.9,40.7,96.8,40.4,96.7z"
		/>
	<path class="st1" d="M49.8,89.8c0-2.2,2-3.3,6.5-3.8c0-1.5-0.4-3.2-2.4-3.2c-1.4,0-2.5,0.7-3.2,1.2l-0.4-0.7
		c0.7-0.5,2.1-1.3,3.8-1.3c2.4,0,3.2,1.7,3.2,3.9v6.4h-0.8L56.4,91l0,0c-1,0.8-2.3,1.6-3.6,1.6C51.2,92.5,49.8,91.7,49.8,89.8z
		 M56.3,90.1v-3.4c-4.1,0.5-5.6,1.4-5.6,3c0,1.4,1,2,2.1,2C54.1,91.7,55.1,91.2,56.3,90.1z"/>
	<path class="st1" d="M61.8,91.3L61.8,91.3l-0.2,1h-0.8V77.2h0.9v4.4v2c1-0.9,2.2-1.6,3.5-1.6c2.7,0,4,2,4,5.1
		c0,3.4-2.1,5.4-4.4,5.4C63.9,92.5,62.7,92,61.8,91.3z M68.3,87.1c0-2.5-0.9-4.3-3.2-4.3c-1,0-2.1,0.6-3.3,1.7v6
		c1.1,0.9,2.2,1.3,3,1.3C66.8,91.7,68.3,89.8,68.3,87.1z"/>
	<path class="st1" d="M71.2,89.8c0-2.2,2-3.3,6.5-3.8c0-1.5-0.4-3.2-2.4-3.2c-1.4,0-2.5,0.7-3.2,1.2l-0.4-0.7
		c0.7-0.5,2.1-1.3,3.8-1.3c2.4,0,3.2,1.7,3.2,3.9v6.4h-0.8L77.8,91l0,0c-1,0.8-2.3,1.6-3.6,1.6C72.5,92.5,71.2,91.7,71.2,89.8z
		 M77.7,90.1v-3.4c-4.1,0.5-5.6,1.4-5.6,3c0,1.4,1,2,2.1,2C75.5,91.7,76.5,91.2,77.7,90.1z"/>
	<path class="st1" d="M82.3,82.2H83l0.1,1.9l0,0c0.7-1.2,1.7-2.1,2.9-2.1c0.4,0,0.7,0,1,0.2L86.8,83c-0.3-0.1-0.5-0.2-0.9-0.2
		c-0.9,0-2,0.7-2.8,2.6v6.9h-0.9V82.2H82.3z"/>
	<path class="st1" d="M87.7,89.8c0-2.2,2-3.3,6.5-3.8c0-1.5-0.4-3.2-2.4-3.2c-1.4,0-2.5,0.7-3.2,1.2l-0.4-0.7
		c0.7-0.5,2.1-1.3,3.8-1.3c2.4,0,3.2,1.7,3.2,3.9v6.4h-0.8L94.3,91l0,0c-1,0.8-2.3,1.6-3.6,1.6C89.1,92.5,87.7,91.7,87.7,89.8z
		 M94.2,90.1v-3.4c-4.1,0.5-5.6,1.4-5.6,3c0,1.4,1,2,2.1,2C92,91.7,93,91.2,94.2,90.1z"/>
	<path class="st1" d="M98.8,90.9V77.2h0.9v13.9c0,0.4,0.2,0.7,0.4,0.7c0.1,0,0.2,0,0.4,0l0.2,0.8c-0.2,0.1-0.4,0.1-0.7,0.1
		C99.2,92.5,98.8,92,98.8,90.9z"/>
	<path class="st1" d="M103.2,91.6c0-0.6,0.4-1,0.9-1s0.9,0.4,0.9,1s-0.4,0.9-0.9,0.9S103.2,92.2,103.2,91.6z"/>
	<path class="st1" d="M107.3,87.3c0-3.4,2.2-5.3,4.6-5.3c1.4,0,2.3,0.6,3,1.2l-0.5,0.6c-0.7-0.6-1.4-1.1-2.4-1.1
		c-2.1,0-3.7,1.8-3.7,4.5s1.4,4.5,3.6,4.5c1.1,0,2-0.5,2.7-1.2l0.5,0.7c-0.9,0.8-1.9,1.3-3.2,1.3C109.2,92.5,107.3,90.6,107.3,87.3z
		"/>
	<path class="st1" d="M116.3,87.3c0-3.4,2.1-5.3,4.5-5.3s4.5,1.9,4.5,5.3c0,3.3-2.1,5.3-4.5,5.3S116.3,90.6,116.3,87.3z M124.4,87.3
		c0-2.7-1.5-4.5-3.6-4.5s-3.6,1.8-3.6,4.5s1.5,4.5,3.6,4.5S124.4,89.9,124.4,87.3z"/>
	<path class="st1" d="M128.4,82.2h0.8l0.1,1.6l0,0c0.9-1,2.1-1.8,3.2-1.8c1.6,0,2.4,0.8,2.8,2.1c1.1-1.3,2.3-2.1,3.4-2.1
		c2,0,3,1.3,3,3.9v6.5h-0.9v-6.3c0-2.1-0.7-3.2-2.3-3.2c-0.9,0-1.9,0.6-3,1.9v7.6h-0.9v-6.3c0-2.1-0.7-3.2-2.3-3.2
		c-0.9,0-1.9,0.6-3,1.9v7.6h-0.9L128.4,82.2L128.4,82.2z"/>
	<path class="st1" d="M144.9,91.6c0-0.6,0.4-1,0.9-1s0.9,0.4,0.9,1s-0.4,0.9-0.9,0.9S144.9,92.2,144.9,91.6z"/>
	<path class="st1" d="M150.1,82.2h0.8l0.1,1.6l0,0c1-1,2.1-1.8,3.5-1.8c2.1,0,3,1.3,3,3.9v6.5h-0.9v-6.3c0-2.1-0.7-3.2-2.3-3.2
		c-1.2,0-2.1,0.6-3.3,1.9v7.6h-0.9L150.1,82.2L150.1,82.2z"/>
	<path class="st1" d="M161.2,82.2h0.8l0.1,1.3l0,0c1-0.8,2.2-1.5,3.4-1.5c2.7,0,4,2,4,5.1c0,3.4-2.1,5.4-4.4,5.4c-1,0-2-0.5-3-1.2
		v1.9v3.7h-0.9L161.2,82.2L161.2,82.2z M168.6,87.1c0-2.5-0.9-4.3-3.2-4.3c-1,0-2.1,0.6-3.3,1.7v6c1.1,0.9,2.2,1.3,3,1.3
		C167.2,91.7,168.6,89.8,168.6,87.1z"/>
</g>
</svg>
